<svg width="359.99999999999994" height="107" viewBox="0 0 359.99999999999994 107" class="css-1j8o68f" fill="none" 
xmlns="http://www.w3.org/2000/svg">
    <defs id="SvgjsDefs1335"></defs>
    <g id="SvgjsG1336" featurekey="symbolContainer" transform="matrix(1,0,0,1,0,0)" fill="#711c63">
        <rect xmlns="http://www.w3.org/2000/svg" width="110" height="107" rx="10" ry="10"></rect>
    </g>
    <g id="SvgjsG1337" featurekey="symbolFeature-0" transform="matrix(2.430555458973959,0,0,2.430555458973959,1.5277787435937427,0.06944570000520045)" fill="#ffffff">
        <g xmlns="http://www.w3.org/2000/svg">
            <g>
                <line class="st0" x1="8.6" y1="17.9" x2="17.8" y2="8.7" style="fill: none; stroke: #ffffff; stroke-width: 3; stroke-linecap: round; stroke-linejoin: round; stroke-miterlimit: 10;"></line>
                <line class="st0" x1="8.6" y1="8.7" x2="17.8" y2="17.9" style="fill: none; stroke: #ffffff; stroke-width: 3; stroke-linecap: round; stroke-linejoin: round; stroke-miterlimit: 10;"></line>
            </g>
            <g>
                <path class="st0" d="M34.1,35.4H27c-0.9,0-1.7-0.7-1.7-1.7v-7.1c0-0.9,0.7-1.7,1.7-1.7h7.1c0.9,0,1.7,0.7,1.7,1.7v7.1    C35.7,34.7,35,35.4,34.1,35.4z" style="fill: none; stroke: #ffffff; stroke-width: 3; stroke-linecap: round; stroke-linejoin: round; stroke-miterlimit: 10;"></path>
            </g>
            <circle class="st0" cx="13.2" cy="30.2" r="5.6" style="fill: none; stroke: #ffffff; stroke-width: 3; stroke-linecap: round; stroke-linejoin: round; stroke-miterlimit: 10;"></circle>
            <polygon class="st0" points="30.5,8.2 24.6,18.4 36.4,18.4  " style="fill: none; stroke: #ffffff; stroke-width: 3; stroke-linecap: round; stroke-linejoin: round; stroke-miterlimit: 10;"></polygon>
        </g>
    </g>
    <g id="SvgjsG1338" featurekey="nameFeature-0" transform="matrix(1.7209311830979448,0,0,1.7209311830979448,129.99163062200304,-0.7707054784831584)" fill="#97266e">
        <path d="M10.52 28.72 c0.04 0.52 0 1.04 -0.24 1.48 c-0.2 0.4 -0.48 0.72 -0.8 1.04 l-0.12 0.12 c-0.36 0.36 -0.8 0.68 -1.24 1 l-0.92 0.72 l-0.4 0.32 c-0.28 0.28 -0.56 0.56 -0.88 0.8 c0.12 0.08 0.24 0.12 0.36 0.12 c0.2 0.04 0.4 0.04 0.6 0 l0.68 -0.12 c0.08 0 0.24 -0.04 0.28 0 c0.08 0.04 0.08 0.16 0.12 0.2 c0.04 1.76 -1.96 1.92 -3.16 1.44 l-0.36 0.64 c-0.2 0.4 -0.56 0.92 -0.44 1.4 c0.08 0.4 0.52 0.36 0.88 0.32 c0.32 0 0.64 0 0.96 -0.08 c0.52 -0.08 1.04 -0.28 1.52 -0.56 c0.08 0 0.12 -0.04 0.16 -0.04 c0.24 -0.04 0.28 0.32 0.28 0.48 c0 0.44 -0.04 0.84 -0.16 1.28 c-0.12 0.36 -0.4 0.64 -0.68 0.88 s-0.64 0.44 -0.96 0.56 c-0.36 0.16 -0.68 0.28 -1.04 0.36 c-0.52 0.12 -1.08 0.2 -1.6 0.24 c-0.52 0.08 -1.08 0.08 -1.6 -0.04 c-0.88 -0.24 -1.52 -0.96 -1.68 -1.8 c-0.4 -1.72 0.88 -3.44 1.88 -4.72 l0.6 -0.68 c-0.24 -0.2 -0.6 -0.36 -0.88 -0.48 s-0.6 -0.16 -0.92 -0.16 l-0.16 0 c-0.04 -0.04 -0.04 -0.08 -0.04 -0.12 c-0.04 -0.2 0.04 -0.4 0.16 -0.56 s0.28 -0.28 0.44 -0.36 c0.44 -0.24 1 -0.36 1.48 -0.28 c0.28 0.04 0.48 0.12 0.72 0.2 c0.04 0.04 0.6 0.4 0.6 0.4 c0.6 -0.48 1.24 -0.96 1.92 -1.4 c0.6 -0.36 1.16 -0.72 1.72 -1.12 l-1.8 -0.28 c-1.16 -0.2 -2.4 0.04 -3.32 0.72 c-0.12 0.08 -0.2 0.16 -0.32 0.2 s-0.24 0.04 -0.32 -0.04 l-0.12 -0.12 c-0.88 -1.6 0.92 -3.08 2.36 -3.24 c0.96 -0.08 1.92 0.16 2.84 0.36 l1.16 0.28 c0.44 0.04 0.92 0.04 1.36 0 c0.16 -0.04 0.32 -0.08 0.48 -0.08 s0.32 0.08 0.4 0.16 c0.16 0.16 0.2 0.36 0.2 0.56 z M17.96 37.28 c0 0.2 -0.04 0.4 -0.08 0.6 c-0.16 1.44 -0.12 2.92 0.36 4.28 c0.2 0.56 0.44 1.2 0.12 1.72 c-0.12 0.24 -0.4 0.4 -0.64 0.48 c-1.24 0.52 -2.84 -0.04 -3.52 -1.2 c-0.44 -0.8 -0.44 -1.72 -0.36 -2.64 c0.08 -1.16 0.4 -2.36 0.84 -3.44 l0.88 -1.88 c0.2 -0.48 0.52 -1.12 0.48 -1.64 c0 -0.2 -0.08 -0.36 -0.2 -0.48 c-0.2 -0.16 -0.48 -0.12 -0.76 -0.04 c-0.56 0.12 -1.2 0.24 -1.56 0.76 c-0.12 0.24 -0.24 0.48 -0.32 0.72 c-0.4 1.24 -0.6 2.52 -0.76 3.8 l-0.28 1.52 c-0.04 0.2 -0.08 0.36 -0.16 0.52 c-0.2 0.2 -0.56 0.24 -0.84 0.16 c-0.44 -0.12 -0.8 -0.44 -1.08 -0.8 l-0.28 -0.44 c-0.64 -1.2 -0.48 -2.52 -0.24 -3.8 c0.28 -1.44 0.72 -2.84 1.08 -4.24 l1.52 -5.52 c0.44 -1.6 0.92 -3.36 0.56 -5 c-0.04 -0.24 -0.12 -0.44 -0.12 -0.68 s0.12 -0.44 0.32 -0.56 c0.08 -0.08 0.24 -0.08 0.36 -0.08 c0.56 0.04 1.04 0.36 1.4 0.8 c0.32 0.44 0.48 0.96 0.6 1.52 c0.24 1.44 -0.16 2.92 -0.4 4.36 c-0.28 1.56 -0.6 3.08 -0.92 4.64 c0 0 0 0.16 -0.04 0.16 c1.48 -0.84 2.72 -2.12 3.68 -3.52 c0.12 -0.16 0.24 -0.36 0.44 -0.4 c0.44 -0.12 0.76 0.4 0.88 0.76 c0.16 0.4 0.12 0.84 -0.08 1.2 c-0.16 0.44 -0.44 0.76 -0.72 1.12 c-0.12 0.08 -0.76 0.88 -0.92 0.84 c0.8 0.2 1.44 0.72 1.6 1.6 c0.2 0.92 -0.16 1.72 -0.36 2.6 c-0.2 0.72 -0.36 1.48 -0.48 2.2 z M40.04 30.16 c0.32 -0.04 0.64 -0.04 0.96 0 c0.08 0 0.16 0 0.24 0.04 c0.2 0.12 0.24 0.4 0.2 0.64 c0 0.32 -0.04 0.6 -0.16 0.92 c-0.08 0.28 -0.24 0.56 -0.52 0.72 c-0.2 0.12 -0.44 0.2 -0.68 0.24 c-0.08 0 -0.64 0.08 -0.64 0.04 c0.36 1.04 0.32 2.28 0.24 3.28 c-0.32 3.8 -2.36 7.96 -5.72 9.92 c-0.04 0.04 -0.08 0.08 -0.12 0.08 c-0.48 0.28 -0.96 0.44 -1.44 0.48 c-0.24 0.08 -0.52 0.08 -0.84 0.08 c-1.52 -0.12 -2.64 -1.36 -3.32 -2.64 c-1.24 -2.36 -1.52 -5.12 -1.28 -7.76 c0.24 -2.72 0.88 -5.4 1.96 -7.92 c0.72 -1.68 1.64 -3.24 2.72 -4.72 c0.6 -0.84 1.2 -1.6 1.96 -2.24 c0.92 -0.72 2.08 -1.6 3.2 -1.8 c0.92 -0.2 1.88 -0.08 2.64 0.36 c0.64 0.36 1.12 0.84 1.4 1.48 c0.64 1.36 0.88 3.12 0.16 4.48 c-0.32 0.68 -0.96 1.24 -1.72 1.36 c-0.24 0 -0.52 0 -0.76 -0.04 c-0.32 -0.04 -0.64 -0.12 -0.92 -0.28 c-0.4 -0.2 -0.88 -0.76 -0.28 -1 c0.36 -0.2 0.72 -0.36 1 -0.64 c0.32 -0.24 0.56 -0.56 0.68 -0.96 c0.12 -0.36 0.08 -0.8 -0.04 -1.16 c-0.28 -0.84 -0.88 -1.44 -1.8 -1.2 c-0.6 0.12 -1.12 0.64 -1.52 1.08 c-0.44 0.48 -0.8 1.04 -1.12 1.6 c-1.28 2.36 -2.12 4.96 -2.72 7.56 c-0.2 1.04 -0.32 2.04 -0.44 3.08 c-0.08 1.68 0 3.4 0.36 4.96 c0.08 0.4 0.2 0.84 0.44 1.2 c0.32 0.48 0.84 0.36 1.32 0.24 c0.04 -0.04 0.08 -0.04 0.08 -0.04 c1.24 -0.4 2.12 -1.6 2.6 -2.72 c0.6 -1.36 0.84 -2.8 0.96 -4.24 c0.04 -0.48 0.08 -1.16 -0.48 -1.4 c-0.2 -0.08 -0.44 -0.08 -0.68 -0.08 c-0.52 0.04 -1 0.16 -1.48 0.32 c-0.36 0.12 -0.72 0.28 -1.12 0.32 c-0.04 0 -0.12 0 -0.16 -0.04 c-0.08 -0.04 -0.08 -0.12 -0.12 -0.24 c-0.08 -0.6 0.16 -1.28 0.6 -1.72 c0.4 -0.4 1 -0.64 1.56 -0.84 c1.6 -0.48 3.16 -0.76 4.8 -0.8 z M48.04 28.28 c0.92 0.28 1.6 1.12 1.88 2.04 c0.2 0.8 0.16 1.6 0.04 2.4 c-0.32 1.88 -0.92 3.76 -0.84 5.72 c0.04 0.48 0.12 0.96 0.2 1.44 c0.08 0.32 0.16 0.64 -0.16 0.8 c-0.6 0.4 -1.64 -0.04 -2.12 -0.44 c-0.6 -0.48 -0.88 -1.28 -0.96 -2.04 c-0.04 0.12 -0.2 0.36 -0.24 0.4 c-0.16 0.28 -0.32 0.56 -0.52 0.8 c-0.4 0.48 -0.8 0.84 -1.44 0.96 l-0.6 0 c-0.4 0 -0.8 0 -1.16 -0.16 c-0.72 -0.2 -1.16 -0.88 -1.4 -1.56 c-0.48 -1.28 -0.12 -2.68 0.2 -3.96 c0.48 -1.6 1.04 -3.28 0.96 -5 c0 -0.36 -0.08 -0.72 -0.08 -1.08 c0 -0.08 0 -0.16 0.04 -0.2 c0.04 -0.08 0.16 -0.12 0.24 -0.12 c0.6 0 1.16 0.28 1.6 0.68 c1.44 1.44 0.76 3.64 0.44 5.36 c-0.12 0.52 -0.2 1.08 -0.28 1.6 c-0.04 0.48 -0.12 1.08 0.04 1.56 c0 0.08 0.04 0.16 0.08 0.2 c0.28 0.2 0.44 -0.2 0.52 -0.36 l0.48 -0.84 l0.8 -1.76 c0.72 -1.68 1.64 -3.6 1.36 -5.52 c-0.04 -0.24 -0.08 -0.56 0.04 -0.76 c0.2 -0.24 0.6 -0.24 0.88 -0.16 z M56.2 28.4 c1.16 0.48 1.8 1.76 1.52 2.96 c-0.24 1.2 -1.28 1.96 -2.32 2.4 c-0.52 0.2 -1.2 0.44 -1.88 0.52 c0 0.16 -0.04 0.32 -0.04 0.48 c-0.04 0.52 -0.32 1.72 0.24 2.04 c0.8 0.44 1.84 -0.56 2.16 -0.96 c0.12 -0.16 0.28 -0.36 0.44 -0.4 s0.32 0 0.44 0.04 c0.36 0.24 0.36 0.68 0.32 1.08 c-0.04 0.36 -0.16 0.72 -0.32 1.08 c-0.16 0.28 -0.36 0.6 -0.6 0.84 c-0.72 0.88 -1.48 1.52 -2.64 1.56 c-0.96 0.08 -1.76 -0.12 -2.48 -0.8 c-0.36 -0.36 -0.64 -0.8 -0.8 -1.28 c-0.48 -1.44 -0.16 -3.28 0.36 -4.68 c0.56 -1.52 1.48 -3 2.68 -4.12 c0.2 -0.2 0.44 -0.36 0.68 -0.52 c0.64 -0.4 1.48 -0.52 2.24 -0.24 z M55.68 31.68 c0.24 -0.36 0.32 -1.08 -0.12 -1.32 c-0.2 -0.08 -0.32 -0.04 -0.48 0.04 l-0.24 0.32 c-0.28 0.44 -0.48 0.92 -0.68 1.36 c-0.16 0.32 -0.28 0.68 -0.36 1.08 c0.16 -0.04 0.32 -0.12 0.44 -0.2 c0.56 -0.28 1.12 -0.76 1.44 -1.28 z M63.56 30.439999999999998 c-0.08 -0.08 0 -0.16 0.08 -0.28 c0.16 -0.24 0.28 -0.6 0.2 -0.92 c-0.04 -0.32 -0.32 -0.6 -0.68 -0.64 l-0.2 0 c-0.64 0.16 -0.88 0.8 -0.92 1.36 c-0.12 0.76 0.32 1.56 0.8 2.16 c0.76 0.96 1.6 1.92 2.04 3.12 c0.4 1.16 0.28 2.44 0.12 3.64 c-0.16 1.04 -0.6 2.04 -1.4 2.76 s-1.84 1.04 -2.8 0.92 c-0.6 0 -1.24 -0.12 -1.76 -0.32 c-1.12 -0.44 -1.84 -1.32 -2.04 -2.56 c-0.2 -1.36 0.2 -2.76 1.28 -3.68 c0.64 -0.56 1.48 -0.88 2.36 -0.88 c0.12 0 0.24 0.04 0.32 0.12 c0.04 0.04 0.04 0.16 0.04 0.24 c0 0.28 -0.12 0.56 -0.24 0.8 c-0.12 0.36 -0.2 0.72 -0.24 1.08 c0 0.48 0.04 1.04 0.64 1.04 c0.52 0 0.96 -0.44 1.12 -0.92 s0.08 -1 -0.08 -1.52 c-0.4 -1.36 -1.6 -2.24 -2.16 -3.56 c-0.44 -1 -0.6 -2.16 -0.28 -3.24 c0.28 -1 0.92 -2 1.88 -2.44 c0.92 -0.36 2.08 -0.2 2.88 0.36 l0.36 0.32 l0.24 0.28 c0.2 0.36 0.36 0.72 0.4 1.12 c0.08 0.76 -0.32 1.56 -1.08 1.8 c-0.24 0.08 -0.52 0.08 -0.76 -0.04 c-0.08 -0.04 -0.12 -0.04 -0.12 -0.12 z M71.91999999999999 30.439999999999998 c-0.08 -0.08 0 -0.16 0.08 -0.28 c0.16 -0.24 0.28 -0.6 0.2 -0.92 c-0.04 -0.32 -0.32 -0.6 -0.68 -0.64 l-0.2 0 c-0.64 0.16 -0.88 0.8 -0.92 1.36 c-0.12 0.76 0.32 1.56 0.8 2.16 c0.76 0.96 1.6 1.92 2.04 3.12 c0.4 1.16 0.28 2.44 0.12 3.64 c-0.16 1.04 -0.6 2.04 -1.4 2.76 s-1.84 1.04 -2.8 0.92 c-0.6 0 -1.24 -0.12 -1.76 -0.32 c-1.12 -0.44 -1.84 -1.32 -2.04 -2.56 c-0.2 -1.36 0.2 -2.76 1.28 -3.68 c0.64 -0.56 1.48 -0.88 2.36 -0.88 c0.12 0 0.24 0.04 0.32 0.12 c0.04 0.04 0.04 0.16 0.04 0.24 c0 0.28 -0.12 0.56 -0.24 0.8 c-0.12 0.36 -0.2 0.72 -0.24 1.08 c0 0.48 0.04 1.04 0.64 1.04 c0.52 0 0.96 -0.44 1.12 -0.92 s0.08 -1 -0.08 -1.52 c-0.4 -1.36 -1.6 -2.24 -2.16 -3.56 c-0.44 -1 -0.6 -2.16 -0.28 -3.24 c0.28 -1 0.92 -2 1.88 -2.44 c0.92 -0.36 2.08 -0.2 2.88 0.36 l0.36 0.32 l0.24 0.28 c0.2 0.36 0.36 0.72 0.4 1.12 c0.08 0.76 -0.32 1.56 -1.08 1.8 c-0.24 0.08 -0.52 0.08 -0.76 -0.04 c-0.08 -0.04 -0.12 -0.04 -0.12 -0.12 z M106.55999999999999 20.04 c0.32 1 0.4 2.16 0.44 3.2 c0.08 2.28 -0.24 4.6 -0.64 6.84 c-0.16 1 -0.4 2 -0.64 3 c-0.56 2 -1.24 4 -2.04 5.92 c-0.76 1.92 -1.72 3.8 -2.96 5.48 c-1.2 1.6 -2.96 3.08 -5.08 2.48 c-1.84 -0.48 -2.48 -1.8 -2.64 -3.36 c-0.2 0.24 -0.36 0.48 -0.6 0.68 c-1.2 1.32 -2.72 2.36 -4.56 2.56 c-1.6 0.16 -3.36 -0.48 -4.2 -1.92 l-0.12 -0.2 c-0.32 -0.44 -0.56 -0.92 -0.76 -1.44 c-0.68 -1.88 -0.28 -4 0.2 -5.88 c0.32 -1.2 0.56 -2.4 0.8 -3.6 c0.4 -2.28 0.64 -4.6 0.6 -6.92 c0 -1.12 0 -2.28 -0.16 -3.4 c-0.12 -1.04 -0.52 -2.08 -0.92 -3 c-0.08 -0.12 -0.12 -0.28 -0.04 -0.4 c0.04 -0.08 0.12 -0.12 0.2 -0.12 c1.68 -0.48 3 0.76 3.68 2.16 c1 1.92 1.08 4.32 1.16 6.44 c0.04 1.48 0 3 -0.16 4.48 c-0.16 1.36 -0.32 2.76 -0.56 4.12 c-0.24 1.16 -0.36 2.32 -0.4 3.52 c0 0.56 0 1.12 0.24 1.64 c0.2 0.52 0.64 1 1.2 1.08 c0.4 0.08 0.8 -0.08 1.16 -0.28 c2.16 -1.12 3.08 -3.68 3.44 -5.96 c0.4 -2.56 0.2 -5.2 -0.68 -7.64 c-0.08 -0.28 -0.16 -0.6 0 -0.8 c0.08 -0.16 0.28 -0.24 0.44 -0.24 c0.44 -0.08 0.84 0 1.24 0.12 c2.64 1 3.2 4.44 3.12 6.92 l0 0.44 c-0.08 1.16 -0.08 2.28 -0.12 3.44 c-0.04 0.52 -0.16 2.2 0.32 2.6 c0.44 0.32 1.04 -0.2 1.32 -0.64 c2.44 -3.92 3.48 -8.56 3.76 -13.16 c0.24 -3.12 0.32 -7.76 -2 -10.2 c-0.12 -0.12 -0.24 -0.2 -0.32 -0.32 c-0.04 -0.16 -0.08 -0.32 -0.04 -0.44 c0.08 -0.2 0.32 -0.32 0.52 -0.36 c0.84 -0.2 1.68 -0.2 2.52 -0.08 c0.36 0.08 0.64 0.16 1 0.36 c0.32 0.2 0.6 0.44 0.88 0.72 c0.6 0.6 1.12 1.36 1.4 2.16 z M116.27999999999999 29.72 c0.04 0.2 0.08 0.4 0.08 0.6 c0.08 1.24 -0.04 2.48 -0.4 3.64 c-0.6 1.96 -1.48 3.84 -1.68 5.92 c-0.08 0.48 -0.04 1 0.08 1.48 l0.44 1 s0 0.04 0.04 0.04 c0.12 0.36 0.24 0.76 0.12 1.12 c-0.08 0.4 -0.44 0.72 -0.84 0.92 c-0.76 0.32 -1.44 0.24 -2.16 0.04 c-0.44 -0.12 -0.84 -0.36 -1.16 -0.72 c-0.8 -0.92 -0.92 -2.24 -0.76 -3.4 c0.28 -2.24 1.28 -4.28 2.44 -6.2 c0.52 -0.8 1 -1.92 1 -2.84 c0 -0.16 0 -0.36 -0.12 -0.52 c-0.08 -0.16 -0.28 -0.28 -0.48 -0.32 c-0.64 -0.08 -1.28 0.6 -1.68 1.04 c-0.96 0.96 -1.52 2.24 -1.88 3.56 c-0.44 1.64 -0.76 3.36 -0.88 5.08 c-0.04 0.36 -0.08 0.76 -0.4 0.88 c-0.24 0.08 -0.44 0 -0.68 -0.08 c-0.44 -0.16 -0.88 -0.36 -1.2 -0.72 c-0.4 -0.48 -0.48 -1.12 -0.48 -1.72 c-0.04 -1.88 0.36 -3.64 0.72 -5.48 c0.72 -3.52 2.24 -6.8 2.96 -10.32 c0.2 -0.88 0.24 -1.84 0.16 -2.76 c0 -0.16 -0.04 -0.32 0.04 -0.44 c0.12 -0.2 0.36 -0.24 0.6 -0.2 c0.4 0 0.8 0.24 1.12 0.52 c0.28 0.32 0.48 0.68 0.64 1.08 c0.52 1.24 0.48 2.64 0.24 3.92 l-0.48 2 l-0.28 1.04 c-0.08 0.2 -0.12 0.36 -0.16 0.56 c-0.04 0.08 -0.08 0.48 -0.16 0.52 c0.6 -0.4 1.28 -0.68 2 -0.84 c0.64 -0.16 1.36 -0.16 1.96 0.12 c0.72 0.28 1.08 0.84 1.24 1.48 z M123.2 29.2 c0.56 0.96 0.6 2.24 0.52 3.32 c-0.08 2 -0.32 4.2 -1.56 5.88 c-0.68 0.92 -1.72 1.52 -2.84 1.64 c-3.6 0.36 -3.52 -4.32 -2.68 -6.6 c0.68 -1.96 1.8 -4.2 3.76 -5.08 c1.04 -0.48 2.2 -0.12 2.8 0.84 z M121.56 34.92 c0.36 -1.4 0.4 -2.88 0.04 -4.32 c-0.04 -0.16 -0.08 -0.32 -0.2 -0.4 c-0.4 -0.28 -1.36 1.6 -1.52 1.96 c-0.48 1.04 -0.76 2.24 -0.8 3.36 c-0.04 0.52 0 0.96 0.08 1.28 c0 0.08 0.04 0.2 0.04 0.28 c0 0.04 0.04 0.08 0.04 0.12 l0.08 0.12 l0.08 0.08 c1.12 0.72 1.96 -1.68 2.16 -2.44 l0 -0.04 z M126.16 23.36 c1.76 -1.36 4.32 -1.44 5.96 0.16 c1.64 1.56 1.88 4.12 1.12 6.16 c-0.84 2.16 -2.56 3.68 -3.84 5.6 c-0.56 0.84 -1 1.72 -1.4 2.64 c-0.36 0.72 -0.6 1.44 -0.8 2.24 l-0.2 1.12 c-0.04 0.2 -0.08 0.56 -0.24 0.72 c-0.12 0.08 -0.28 0.08 -0.4 0.04 c-0.76 -0.08 -1.4 -0.72 -1.64 -1.44 c-0.44 -1.36 0.16 -2.76 0.76 -3.92 l0.92 -1.8 c0.68 -1.2 1.48 -2.36 2.24 -3.52 c0.52 -0.76 0.92 -1.56 1 -2.52 c0.04 -0.84 -0.04 -1.76 -0.56 -2.44 c-0.36 -0.48 -1.56 -1.12 -1.96 -0.36 c-0.08 0.16 -0.08 0.36 -0.12 0.56 c0 0.36 0.04 0.76 0.2 1.12 c0.12 0.4 0.36 0.88 -0.12 1.16 c-0.12 0.08 -0.28 0.12 -0.44 0.16 c-0.72 0.08 -1.52 -0.24 -1.88 -0.84 c-0.12 -0.16 -0.2 -0.32 -0.24 -0.52 c-0.52 -1.6 0.4 -3.32 1.64 -4.32 z M125.72 43 c0.72 0.12 0.92 0.84 0.92 1.48 c0.04 0.76 -0.04 1.52 -0.16 2.28 c-0.04 0.12 -0.08 0.28 -0.2 0.36 c-0.08 0.08 -0.24 0.08 -0.4 0.08 c-0.68 -0.08 -1.36 -0.44 -1.68 -1.04 c-0.12 -0.24 -0.16 -0.48 -0.2 -0.76 c-0.08 -0.4 -0.04 -0.84 0.08 -1.24 c0.2 -0.72 0.84 -1.32 1.64 -1.16 z"></path>
    </g>
</svg>